<svg width="379" height="100" viewBox="0 0 379 100" fill="none" xmlns="http://www.w3.org/2000/svg">
    <g clip-path="url(#clip0_919_3)">
        <circle cx="50" cy="50" r="50" fill="#239ED2" />
        <g clip-path="url(#clip1_919_3)">
            <path
                d="M50 53.25C51.7949 53.25 53.25 51.7949 53.25 50C53.25 48.2051 51.7949 46.75 50 46.75C48.2051 46.75 46.75 48.2051 46.75 50C46.75 51.7949 48.2051 53.25 50 53.25Z"
                stroke="white" stroke-width="6.5" stroke-linecap="round" stroke-linejoin="round" />
            <path
                d="M65.0017 56.2528C66.0302 53.7829 66.4329 51.0973 66.174 48.4344C65.9152 45.7714 65.0029 43.2136 63.5181 40.988C62.0332 38.7623 60.0218 36.9377 57.6624 35.6762C55.3031 34.4147 52.6687 33.7552 49.9932 33.7563C47.3177 33.7575 44.6839 34.4193 42.3256 35.6828C39.9673 36.9464 37.9575 38.7728 36.4746 40.9997C34.9917 43.2266 34.0816 45.7852 33.8251 48.4484C33.5686 51.1115 33.9736 53.7968 35.0042 56.2658"
                stroke="white" stroke-width="6.5" stroke-linecap="round" stroke-linejoin="round" />
            <path
                d="M76.9977 61.2745C78.85 56.8295 79.5763 51.9959 79.112 47.2028C78.6477 42.4098 77.0073 37.8055 74.3362 33.7986C71.6652 29.7918 68.0462 26.5065 63.8005 24.2342C59.5548 21.9619 54.8138 20.7729 49.9983 20.7729C45.1828 20.7729 40.4418 21.9619 36.1961 24.2342C31.9504 26.5065 28.3314 29.7918 25.6604 33.7986C22.9893 37.8055 21.3488 42.4098 20.8846 47.2028C20.4203 51.9959 21.1466 56.8295 22.9989 61.2745"
                stroke="white" stroke-width="6.5" stroke-linecap="round" stroke-linejoin="round" />
            <path d="M40.25 79.25L50 50L59.75 79.25" stroke="white" stroke-width="6.5"
                stroke-linecap="round" stroke-linejoin="round" />
            <path d="M43.5 72.75H56.5" stroke="white" stroke-width="6.5" stroke-linecap="round"
                stroke-linejoin="round" />
        </g>
        <path
            d="M148.216 73.768C141.859 73.768 136.888 71.9973 133.304 68.456C129.72 64.9147 127.928 59.8587 127.928 53.288V28.2H138.296V52.904C138.296 57.1707 139.171 60.2427 140.92 62.12C142.669 63.9973 145.123 64.936 148.28 64.936C151.437 64.936 153.891 63.9973 155.64 62.12C157.389 60.2427 158.264 57.1707 158.264 52.904V28.2H168.504V53.288C168.504 59.8587 166.712 64.9147 163.128 68.456C159.544 71.9973 154.573 73.768 148.216 73.768ZM178.75 73V28.2H198.142C202.152 28.2 205.608 28.8613 208.51 30.184C211.411 31.464 213.651 33.32 215.23 35.752C216.808 38.184 217.598 41.0853 217.598 44.456C217.598 47.784 216.808 50.664 215.23 53.096C213.651 55.528 211.411 57.4053 208.51 58.728C205.608 60.008 202.152 60.648 198.142 60.648H184.51L189.118 55.976V73H178.75ZM189.118 57.128L184.51 52.2H197.566C200.766 52.2 203.155 51.5173 204.734 50.152C206.312 48.7867 207.102 46.888 207.102 44.456C207.102 41.9813 206.312 40.0613 204.734 38.696C203.155 37.3307 200.766 36.648 197.566 36.648H184.51L189.118 31.72V57.128ZM225 73V28.2H235.368V64.552H257.832V73H225ZM263.625 73V28.2H273.993V73H263.625ZM284.625 73V28.2H293.201L319.633 60.456H315.472V28.2H325.713V73H317.201L290.705 40.744H294.865V73H284.625ZM345.592 62.76L345.016 50.792L366.456 28.2H377.976L358.648 49L352.888 55.144L345.592 62.76ZM336.312 73V28.2H346.616V73H336.312ZM366.968 73L351.032 53.48L357.816 46.12L379.064 73H366.968Z"
            fill="black" />
    </g>
    <defs>
        <clipPath id="clip0_919_3">
            <rect width="379" height="100" fill="white" />
        </clipPath>
        <clipPath id="clip1_919_3">
            <rect width="78" height="78" fill="white" transform="translate(11 11)" />
        </clipPath>
    </defs>
</svg>